<?xml version="1.0" encoding="UTF-8"?>
<svg version="1.1" viewBox="500 500 1000 1000" width="50" height="50"
    xmlns="http://www.w3.org/2000/svg">
    <path transform="translate(976,545)"
        d="m0 0h32l39 3 34 4 25 5 38 10 36 11 11 6 3 4 1 5v28l-1 36-3 55-6 4h-8l-12-6-16-10-31-16-12-8-7-8-5-10v-4l11 1 26 7 20 9 10 6 3 1v-72l-12-3-34-13-23-7-24-4-26-3-16-1h-45l-50 7-21 7-27 12-16 8-21 12-18 13-9 7-14 12-14 14-8 11-8 8-6 8-8 8-3 6-4 11-4 5-5 5-7 18-9 19-8 27-5 26-3 18-2 25v42l2 22 8 38 10 30 8 18 10 19 14 22 11 15 8 9v2l3 1 7 8 12 11 15 13 20 15 18 11 12 7 28 13 22 8 7 2v-55l-9-2-29-14-16-11-11-9-13-12-13-13-11-14-12-17-12-21-10-22-7-20-6-26-3-30v-41l3-24 9-36 10-24 10-20 11-19 11-16 11-13 7-8 10-10 19-14 23-12 17-9 9-3 5 1 1 23-32 20-19 13-11 8-12 11-5 5-6 8-7 5-6 18-6 9-4 8-10 30-5 24-2 14-1 17v47l2 18 6 24 8 20 9 19 12 20 12 16 9 10 11 11 11 9 13 10 17 10 12 6-1-92v-161l4-6 7-6 9-4 38 6h16l12-1h29l12 2 6 4v2h2l2 5v250h31l101-4h76l10 2 4 9 1 10v68l-1 19-4 8-7 6h-13l-28-1-200-1-1-1v-336l1-12-23 2h-18l-24-2-12-4 2 23v62l-1 68v125l-1 55-1 21-9-1-26-6-27-9-24-10-19-10-16-9-21-14-14-11-15-14-24-24-9-11-14-19-10-16-12-22-9-19-9-24-6-20-7-38-2-22v-49l2-24 5-27 4-16 7-21 11-26 8-16 10-18 14-22 9-12 12-14 9-10 7-8 18-18 11-9 17-13 12-8 15-9 15-8 23-10 18-7 24-7 26-5zm266 566-77 2-100 1v57l1 1 191 1 3-1v-18l-1-42-1-1z"
        fill="white" />
    <path transform="translate(993,651)"
        d="m0 0 6 1 8 7 7 8 11 18 11 19 5 12 3 16v12l-4 19-7 8-9 11-5 6-13 8-4 2h-7l-18-10-13-10-8-11-5-11-1-4v-23l4-10 9-16 9-20 8-16 6-10zm2 48-7 9-8 16-2 7v14l4 9 11 12 5 3 5-1 6-8 3-6 1-6v-14l-3-11-8-16-5-8z"
        fill="white" />
    <path transform="translate(962,1311)"
        d="m0 0h25v90l-1 16-5 1h-10l-8-7-14-17-9-11-11-12-6-7-2-1-2 23-1 31-2 1h-19l-2-4v-100l3-2 12 1 10 9 9 9 7 8 9 10 11 14 4 5v-24l1-31z"
        fill="white" />
    <path transform="translate(1055,1310)"
        d="m0 0h23l11 2 16 8 10 8 7 10 5 11 1 5v17l-5 13-6 10-18 20-8 3-6 1-16 1h-33v-101l1-7zm7 25v59l2 1h9l10-3 11-6 5-8 2-9v-13l-4-11-8-7-9-3z"
        fill="white" />
    <path transform="translate(1285,1310)"
        d="m0 0h69l3 1 1 5v18l-1 1h-47v19l38 1v22h-39l-1 18 51 1 2 1v18l-1 5h-17l-49-1-12-1-1-1v-35l2-56 1-15z"
        fill="white" />
    <path transform="translate(802,1310)"
        d="m0 0h7l6 7 16 32 15 33 8 19 3 13-1 4h-25l-9-18-40 1-9 17-3 1-18-1-1-4 7-21 8-20 11-27 5-13 7-13 5-6zm-1 42-7 10-3 6v5l2 2h19l-1-8-7-14z"
        fill="white" />
    <path transform="translate(674,1310)"
        d="m0 0h15l11 4 10 7 8 8-1 4-8 7h-2l-2 4-4 1-11-7-5-2-9-1-11 2-10 6-4 8-1 3v15l4 12 7 8 9 4h12l10-4 6-5 5 1 13 9 4 3-1 4-10 8-14 7-8 2h-22l-12-4-9-6-5-4-9-12-6-12-2-8v-16l3-11 5-10 9-10 10-7 16-6z"
        fill="white" />
    <path transform="translate(1170,1310)" d="m0 0 25 1 1 83h45l3 1v22l-2 1h-72l-1-5v-102z"
        fill="white" />
    <path transform="translate(1331,1152)"
        d="m0 0 10 2 6 5 3 7-1 13-5 7-6 3h-10l-6-3-6-8-1-4v-8l3-7 6-5zm-4 5-3 2 9 4 3 3v7l-12 1-1 3 5 5 9-1 5-4 1-2v-10l-5-6-5-2z"
        fill="white" />
</svg>